<svg width="512" height="512" viewBox="0 0 512 512" fill="none" xmlns="http://www.w3.org/2000/svg">
<rect width="512" height="512" rx="64" fill="url(#paint0_linear_1_6)"/>
<path d="M111.545 349V162.818H174.455C189.061 162.818 201 165.455 210.273 170.727C219.606 175.939 226.515 183 231 191.909C235.485 200.818 237.727 210.758 237.727 221.727C237.727 232.697 235.485 242.667 231 251.636C226.576 260.606 219.727 267.758 210.455 273.091C201.182 278.364 189.303 281 174.818 281H129.727V261H174.091C184.091 261 192.121 259.273 198.182 255.818C204.242 252.364 208.636 247.697 211.364 241.818C214.152 235.879 215.545 229.182 215.545 221.727C215.545 214.273 214.152 207.606 211.364 201.727C208.636 195.848 204.212 191.242 198.091 187.909C191.97 184.515 183.848 182.818 173.727 182.818H134.091V349H111.545ZM258.045 162.818H283.864L335.5 249.727H337.682L389.318 162.818H415.136L347.864 272.273V349H325.318V272.273L258.045 162.818Z" fill="white"/>
<defs>
<linearGradient id="paint0_linear_1_6" x1="0" y1="0" x2="512" y2="512" gradientUnits="userSpaceOnUse">
<stop stop-color="#FFE600"/>
<stop offset="1" stop-color="#00B3FF"/>
</linearGradient>
</defs>
</svg>
